HIERARCHY
ROOT Hips
{
	OFFSET 0.000000 0.000000 0.000000 
	CHANNELS 6 Xposition Yposition Zposition Yrotation Zrotation Xrotation 
	JOINT Lumbar
	{
		OFFSET 0.000000 0.000000 0.000000 
		CHANNELS 3 Zrotation Xrotation Yrotation
		JOINT Neck
		{
			OFFSET 0.000000 0.445665 0.000000 
			CHANNELS 3 Zrotation Xrotation Yrotation
			End Site
			{
				OFFSET 0.000000 0.227535 0.000000 
			}
		}
		JOINT RightShoulder
		{
			OFFSET 0.019635 0.377685 0.194865 
			CHANNELS 3 Zrotation Xrotation Yrotation
			JOINT RightElbow
			{
				OFFSET 0.000000 -0.243375 0.000000 
				CHANNELS 2 Zrotation Yrotation
				JOINT RightWrist
				{
					OFFSET 0.000000 -0.264825 0.000000 
					CHANNELS 2 Zrotation Xrotation
					End Site
					{
						OFFSET 0.006600 -0.176220 0.000990 
					}
				}
			}
		}
		JOINT LeftShoulder
		{
			OFFSET 0.019635 0.377685 -0.194865 
			CHANNELS 3 Zrotation Xrotation Yrotation
			JOINT LeftElbow
			{
				OFFSET 0.000000 -0.243375 0.000000 
				CHANNELS 2 Zrotation Yrotation
				JOINT LeftWrist
				{
					OFFSET 0.000000 -0.264825 0.000000 
					CHANNELS 2 Zrotation Xrotation
					End Site
					{
						OFFSET 0.006600 -0.176220 -0.000990 
					}
				}
			}
		}
	}
	JOINT RightHip
	{
		OFFSET 0.052140 -0.069960 0.075570 
		CHANNELS 3 Zrotation Xrotation Yrotation
		JOINT RightKnee
		{
			OFFSET 0.000000 -0.402270 0.000000 
			CHANNELS 1 Zrotation
			JOINT RightAnkle
			{
				OFFSET 0.000000 -0.404085 0.000000 
				CHANNELS 3 Zrotation Xrotation Yrotation
				End Site
				{
					OFFSET 0.204105 -0.089430 0.008415 
				}
			}
		}
	}
	JOINT LeftHip
	{
		OFFSET 0.052140 -0.069960 -0.075570 
		CHANNELS 3 Zrotation Xrotation Yrotation
		JOINT LeftKnee
		{
			OFFSET 0.000000 -0.402270 0.000000 
			CHANNELS 1 Zrotation
			JOINT LeftAnkle
			{
				OFFSET 0.000000 -0.404085 0.000000 
				CHANNELS 3 Zrotation Xrotation Yrotation
				End Site
				{
					OFFSET 0.204105 -0.089430 -0.008415 
				}
			}
		}
	}
}
MOTION
Frames: 35
Frame Time: 0.02
-0 0.95578 -0 177.10078 0 3.98098 9.67315 -0.78987 0.95836 -34.36992 2.33677 2.64353 27.36759 -13.51158 5.42651 12.02279 81.79086 0.26125 1.52228 26.94156 4.5059 1.86546 8.66893 -75.17723 -4.74838 -0.83961 -3.14859 4.18693 13.82486 -18.22594 12.17016 -11.01686 -14.04832 -2.85075 -5.52389 -15.06528 -14.3688 9.39005 7.49389 8.98438
0.00066 0.9558 0.00048 177.18142 0 3.97003 9.67144 -0.82738 0.89927 -34.39224 2.33267 2.63233 27.3577 -13.51114 5.28661 12.08102 81.7763 0.2681 1.46911 26.95199 4.52037 1.83463 8.67784 -75.12954 -4.74182 -0.83043 -3.046 4.1928 13.77515 -18.36226 12.18468 -11.0363 -14.0678 -2.79231 -5.53475 -15.17491 -14.39012 9.37958 7.51134 8.98453
0.00132 0.95583 0.00096 177.26206 0 3.9591 9.66978 -0.86467 0.84064 -34.41446 2.32844 2.62107 27.34779 -13.51046 5.14491 12.13837 81.76188 0.27484 1.4164 26.96243 4.53497 1.80392 8.6867 -75.08189 -4.73539 -0.82134 -2.94395 4.19856 13.7253 -18.49767 12.19906 -11.05552 -14.08714 -2.73379 -5.54564 -15.28411 -14.41173 9.36919 7.52855 8.98449
0.00197 0.95585 0.00145 177.34353 0 3.94816 9.66836 -0.90138 0.78315 -34.43686 2.32376 2.60938 27.33792 -13.50861 4.99358 12.19292 81.74788 0.28135 1.36408 26.97364 4.55015 1.77333 8.69522 -75.03383 -4.72936 -0.81251 -2.84354 4.20391 13.67382 -18.62985 12.21307 -11.07405 -14.10566 -2.67462 -5.55673 -15.39283 -14.43466 9.35904 7.54516 8.98398
0.00264 0.95586 0.00193 177.42066 0 3.93728 9.66574 -0.94106 0.71952 -34.45877 2.3216 2.59987 27.32812 -13.51274 4.89198 12.26249 81.73167 0.28926 1.30858 26.9815 4.56217 1.7421 8.70527 -74.9878 -4.7212 -0.80226 -2.73505 4.2114 13.63032 -18.77804 12.2291 -11.09624 -14.12801 -2.61913 -5.56673 -15.5043 -14.4505 9.34761 7.56517 8.9863
0.00328 0.95589 0.00241 177.50687 0 3.92631 9.6656 -0.97446 0.66899 -34.48136 2.31404 2.58581 27.318 -13.50436 4.68616 12.30007 81.72015 0.29407 1.26063 26.99595 4.5809 1.71224 8.71227 -74.93763 -4.71754 -0.79504 -2.64332 4.2144 13.57043 -18.89296 12.24084 -11.11069 -14.14258 -2.55577 -5.57907 -15.60968 -14.48141 9.33891 7.57784 8.98241
0.00388 0.95595 0.00291 177.62162 0 3.9146 9.67299 -0.99062 0.65401 -34.50938 2.29138 2.55805 27.30821 -13.45883 4.16938 12.24869 81.72187 0.29133 1.22618 27.03383 4.61904 1.68441 8.70903 -74.87364 -4.72646 -0.79646 -2.60089 4.20416 13.45772 -18.90951 12.24061 -11.10314 -14.13218 -2.46947 -5.59812 -15.7019 -14.55568 9.33787 7.57081 8.96251
0.00445 0.95601 0.0034 177.74503 0 3.9029 9.68276 -1.00049 0.65233 -34.53749 2.26336 2.5259 27.29791 -13.40124 3.55151 12.16524 81.72846 0.28541 1.20048 27.07749 4.66385 1.65743 8.70304 -74.80604 -4.73973 -0.80095 -2.57484 4.1895 13.32956 -18.89359 12.23611 -11.08791 -14.11444 -2.37537 -5.61951 -15.78731 -14.64488 9.33957 7.55623 8.93604
0.00504 0.95608 0.0039 177.86237 0 3.89149 9.69098 -1.01312 0.645 -34.56321 2.23781 2.4964 27.28702 -13.35058 2.99374 12.09655 81.73242 0.28008 1.17581 27.11509 4.70502 1.63226 8.69952 -74.74134 -4.75114 -0.80383 -2.53922 4.17746 13.21348 -18.89692 12.23362 -11.07652 -14.10249 -2.28545 -5.63972 -15.87368 -14.7263 9.3399 7.54476 8.91191
0.00561 0.95614 0.00441 177.98871 0 3.87875 9.70112 -1.02593 0.63614 -34.59868 2.21181 2.46398 27.27948 -13.29318 2.37449 12.02634 81.73744 0.27775 1.13086 27.16699 4.74861 1.60127 8.69088 -74.67055 -4.76276 -0.80748 -2.51237 4.16299 13.07677 -18.88171 12.23072 -11.06352 -14.08068 -2.19272 -5.66044 -15.96942 -14.81218 9.34071 7.53476 8.89081
0.0062 0.9562 0.00488 178.09837 0 3.86889 9.70791 -1.03715 0.63344 -34.61407 2.18587 2.4368 27.26498 -13.24773 1.86151 11.95262 81.74231 0.26917 1.12915 27.19071 4.78894 1.57829 8.69222 -74.61258 -4.77411 -0.81044 -2.4714 4.15235 12.97848 -18.89687 12.22784 -11.05222 -14.07705 -2.10416 -5.68061 -16.04356 -14.89199 9.34124 7.51977 8.86145
0.00682 0.95627 0.00527 178.15992 0 3.86601 9.70424 -1.04331 0.64593 -34.57314 2.15797 2.4238 27.23163 -13.23193 1.64616 11.868 81.7413 0.23896 1.25469 27.13506 4.81751 1.61115 8.72181 -74.58281 -4.79049 -0.80894 -2.38523 4.15493 12.99738 -19.00851 12.22474 -11.04616 -14.1302 -2.02729 -5.69918 -16.06397 -14.95471 9.33993 7.49418 8.81454
0.00745 0.95634 0.00563 178.20444 0 3.86619 9.69736 -1.04851 0.66378 -34.51276 2.13098 2.41664 27.1923 -13.22994 1.54419 11.78195 81.74316 0.20433 1.42216 27.05212 4.84317 1.64365 8.76124 -74.56796 -4.80493 -0.80683 -2.28472 4.16124 13.054 -19.15097 12.22217 -11.04239 -14.20078 -1.95503 -5.71705 -16.06226 -15.01062 9.33855 7.46377 8.75908
0.00808 0.95641 0.00599 178.25666 0 3.86564 9.69216 -1.0556 0.67836 -34.46111 2.10584 2.40748 27.15415 -13.2255 1.40488 11.70337 81.74352 0.17414 1.5631 26.9802 4.87045 1.6567 8.79655 -74.5511 -4.8161 -0.80639 -2.19216 4.1648 13.08867 -19.27625 12.22009 -11.03837 -14.26052 -1.88202 -5.73486 -16.06766 -15.06693 9.33717 7.43446 8.70491
0.00872 0.95648 0.00639 178.30913 0 3.86244 9.68552 -1.05633 0.69735 -34.40752 2.07093 2.39475 27.11805 -13.20367 1.20574 11.59773 81.73511 0.13041 1.73346 26.90926 4.89518 1.76111 8.83152 -74.51238 -4.84598 -0.80082 -2.09401 4.17261 13.14354 -19.41378 12.21435 -11.03049 -14.33321 -1.80377 -5.75419 -16.08451 -15.13335 9.33508 7.40871 8.66062
0.00933 0.95654 0.00671 178.35719 0 3.86532 9.6818 -1.07018 0.70774 -34.35638 2.05666 2.3917 27.08182 -13.22252 1.15497 11.54492 81.75784 0.11786 1.85546 26.83606 4.92635 1.66447 8.86802 -74.52477 -4.83507 -0.80496 -2.00403 4.17254 13.16497 -19.53356 12.21697 -11.03164 -14.38206 -1.73672 -5.77036 -16.0733 -15.17916 9.33557 7.37548 8.59484
0.00988 0.95658 0.00688 178.39293 0 3.88496 9.68032 -1.11956 0.69771 -34.29068 2.0992 2.40727 27.00089 -13.34162 1.52542 11.672 81.75309 0.15523 1.80619 26.70872 4.96031 1.10233 8.92238 -74.65735 -4.72563 -0.84157 -1.93854 4.15006 13.09054 -19.59691 12.23751 -11.05333 -14.36933 -1.70676 -5.77619 -15.98177 -15.15208 9.33323 7.31477 8.46451
0.0104 0.95662 0.00698 178.42431 0 3.91009 9.68272 -1.18192 0.67822 -34.23298 2.16251 2.43368 26.92974 -13.50289 2.03454 11.84794 81.79505 0.22902 1.71113 26.59 5.00426 0.32029 8.97687 -74.84382 -4.57439 -0.88602 -1.88173 4.1198 12.98091 -19.64166 12.26729 -11.08422 -14.32982 -1.6861 -5.77911 -15.86431 -15.10891 9.33514 7.24851 8.31524
0.01092 0.95664 0.0071 178.46209 0 3.93275 9.68812 -1.23959 0.65949 -34.18869 2.21635 2.45947 26.88266 -13.6506 2.45485 11.97731 81.89659 0.3132 1.65599 26.50338 5.05325 -0.41874 9.01836 -75.01731 -4.43112 -0.92446 -1.82224 4.09257 12.88281 -19.69477 12.29632 -11.11413 -14.29782 -1.65708 -5.78461 -15.76424 -15.0831 9.34193 7.18974 8.17817
0.01149 0.95671 0.00726 178.48584 0 3.95704 9.67484 -1.29407 0.65449 -34.07171 2.27037 2.46709 26.71024 -13.77505 2.98762 12.20214 81.67991 0.29202 1.52479 26.26461 5.05961 -0.91398 9.10697 -75.1438 -4.32718 -0.97701 -1.75801 4.06637 12.8019 -19.74857 12.31134 -11.13286 -14.28868 -1.64772 -5.78511 -15.63991 -15.00978 9.32082 7.10872 8.02149
0.01196 0.95669 0.00733 178.53142 0 3.97714 9.69949 -1.35583 0.62033 -34.10832 2.32891 2.51531 26.80724 -13.95785 3.31802 12.24896 82.10847 0.48828 1.53662 26.34408 5.15979 -1.97358 9.10717 -75.37944 -4.14042 -0.99727 -1.70451 4.03766 12.68006 -19.79707 12.35707 -11.17423 -14.22207 -1.597 -5.79493 -15.55999 -15.03776 9.35777 7.07418 7.90649
0.01207 0.95642 0.00718 178.69375 0 4.00244 9.84348 -1.45601 0.49309 -34.56392 2.39465 2.67067 27.59058 -14.29 3.05215 11.72043 84.55796 1.36882 1.98651 27.30306 5.49679 -4.49608 8.78623 -75.92099 -3.66126 -0.9683 -1.69017 3.99028 12.42191 -19.82757 12.49082 -11.29876 -14.03072 -1.45177 -5.83476 -15.61195 -15.29694 9.5626 7.15665 7.86485
0.01208 0.95605 0.00694 178.86722 0 4.02024 10.02193 -1.55938 0.33966 -35.17234 2.46404 2.86678 28.65186 -14.67899 2.57829 11.02931 87.61204 2.45007 2.57444 28.57686 5.93335 -7.58325 8.39565 -76.57136 -3.11626 -0.89953 -1.68396 3.94284 12.1297 -19.85497 12.6541 -11.44084 -13.77694 -1.26063 -5.88342 -15.70945 -15.66803 9.82385 7.28786 7.87329
0.01219 0.95573 0.00674 179.00027 0 4.02919 10.17526 -1.6468 0.20781 -35.71573 2.5321 3.04594 29.62621 -15.04363 2.20093 10.45364 90.2203 3.37812 3.07973 29.71082 6.33511 -10.44363 8.08098 -77.1549 -2.64698 -0.82056 -1.66678 3.90478 11.87366 -19.88852 12.80033 -11.56063 -13.53405 -1.07591 -5.92566 -15.78388 -16.02287 10.05392 7.40589 7.89082
0.01207 0.95539 0.00654 179.2854 0 4.08882 10.37143 -1.79457 0.03439 -36.24963 2.60029 3.21948 30.44777 -15.40606 1.81865 9.68443 93.53732 4.5674 3.67291 30.85093 6.68589 -13.2 7.55883 -77.79645 -1.97355 -0.85808 -1.68166 3.82831 11.52848 -19.90037 12.96239 -11.74372 -13.36528 -0.95188 -5.97785 -15.86593 -16.23279 10.30854 7.48841 7.77829
0.01241 0.95508 0.00632 179.25276 0 4.04261 10.48303 -1.81887 -0.05803 -36.82832 2.66782 3.41346 31.63695 -15.78281 1.39726 9.3039 95.53994 5.26195 4.1096 32.02842 7.17542 -16.28636 7.47815 -78.36395 -1.72196 -0.64744 -1.63025 3.83023 11.36206 -19.95824 13.09814 -11.79581 -13.02612 -0.69117 -6.01159 -15.94511 -16.76916 10.52409 7.65331 7.94245
0.01402 0.95488 0.00601 178.37131 0 3.69272 10.38272 -1.48744 0.07556 -37.5898 2.74047 3.66078 33.91255 -16.2122 0.90167 9.82989 93.60162 4.51928 4.14115 33.44104 7.94728 -20.29858 8.41283 -78.505 -2.54676 0.27284 -1.40487 4.06295 11.69096 -20.13348 13.15546 -11.50914 -12.24455 -0.05933 -5.99099 -15.98962 -18.1955 10.6289 8.06154 8.91247
0.0161 0.95473 0.00569 177.16379 0 3.2392 10.19079 -1.03433 0.29255 -38.37367 2.81052 3.92596 36.52084 -16.64845 0.37632 10.79475 90.34962 3.27391 4.00111 34.84099 8.87005 -24.59389 9.83531 -78.59714 -3.8146 1.43466 -1.11013 4.37172 12.20192 -20.35761 13.1847 -11.08483 -11.29123 0.7064 -5.95166 -16.03273 -19.94131 10.69041 8.54585 10.14888
0.01799 0.95458 0.00541 176.08504 0 2.84161 10.02067 -0.64586 0.47389 -39.0831 2.87683 4.17837 38.88749 -17.06403 -0.12487 11.68912 87.80641 2.27519 3.89775 36.11017 9.77322 -28.65816 11.17935 -78.84816 -4.95285 2.46424 -0.84018 4.63658 12.63458 -20.5658 13.22613 -10.7057 -10.4085 1.40922 -5.92186 -16.08679 -21.53346 10.76449 8.97714 11.22838
0.0198 0.9543 0.00496 175.08884 0 2.40581 9.93418 -0.21749 0.64414 -40.06647 2.96506 4.45173 41.65239 -17.55705 -0.67794 12.01794 84.81368 1.21405 3.9662 37.96825 10.47112 -33.17409 11.91668 -78.55411 -5.80025 3.5922 -0.60002 4.94172 13.04903 -20.74567 13.27209 -10.40081 -9.55582 2.12738 -5.88852 -16.09875 -23.17483 10.87042 9.48798 12.4623
0.02187 0.95431 0.00489 173.8429 0 2.0259 9.65293 0.15597 0.85845 -40.48601 3.00568 4.6853 43.65479 -17.88799 -1.12757 13.65042 82.43579 0.15168 3.64344 38.59072 11.63358 -36.80968 14.03384 -79.34716 -7.34143 4.56941 -0.27988 5.17997 13.54292 -20.99831 13.30022 -9.90802 -8.59966 2.83845 -5.85742 -16.19761 -24.77612 10.89914 9.85058 13.4355
0.02462 0.95505 0.00574 171.98943 0 1.81888 8.84201 0.35454 1.16686 -39.31242 2.92642 4.80261 43.54268 -17.784 -1.2783 18.6069 82.09197 -0.71462 2.20177 35.82052 14.01789 -37.93769 19.84209 -83.46391 -10.85375 5.09455 0.2332 5.2241 14.2293 -21.4225 13.29728 -8.93426 -7.40968 3.55141 -5.84212 -16.5309 -26.2899 10.72438 9.78409 13.63671
0.02759 0.95608 0.00699 169.89611 0 1.67305 7.84079 0.49247 1.51793 -37.57554 2.79734 4.87908 42.63885 -17.51411 -1.32199 24.8888 82.4093 -1.58095 0.38592 31.80461 16.86644 -38.16934 27.01759 -88.62384 -15.02394 5.4556 0.82673 5.19663 14.98541 -21.92192 13.27521 -7.77638 -6.12116 4.24229 -5.82883 -16.94928 -27.73239 10.47372 9.56547 13.56291
0.0304 0.957 0.00812 167.9101 0 1.50361 6.93582 0.65392 1.85462 -36.11597 2.68379 4.97581 42.04596 -17.30993 -1.42011 30.67987 82.40744 -2.49732 -1.2055 28.3443 19.52031 -38.81221 33.5735 -93.09495 -18.77928 5.87562 1.39033 5.19583 15.69925 -22.39783 13.25417 -6.69856 -4.87005 4.90747 -5.81119 -17.33648 -29.14108 10.25758 9.41734 13.60708
0.03346 0.95784 0.00898 165.91687 0 1.31258 5.98625 0.83663 2.17413 -34.56749 2.59991 5.06745 41.66269 -17.14513 -1.50317 36.03053 82.42732 -3.21624 -3.02935 24.92009 22.11915 -39.44542 40.15893 -98.44692 -23.01792 6.36782 1.92733 5.22224 16.46745 -22.82865 13.26407 -5.62672 -3.63908 5.72815 -5.80707 -17.70547 -30.84233 10.03814 9.26733 13.69315
